<svg width="24" height="24" viewBox="0 0 24 24" fill="none" xmlns="http://www.w3.org/2000/svg">
<path d="M13.8333 6.66667C14.8459 6.66667 15.6667 7.48748 15.6667 8.5C15.6667 9.51252 14.8459 10.3333 13.8333 10.3333C12.8208 10.3333 12 9.51252 12 8.5C12 7.48748 12.8208 6.66667 13.8333 6.66667Z" fill="#E15E12"/>
<path d="M2.83333 14C3.84586 14 4.66667 14.8208 4.66667 15.8333C4.66667 16.8459 3.84586 17.6667 2.83333 17.6667C1.82081 17.6667 1 16.8459 1 15.8333C1 14.8208 1.82081 14 2.83333 14Z" fill="#E15E12"/>
<path d="M4.66667 10.7917C4.66667 10.5385 4.87187 10.3333 5.125 10.3333H11.5417C11.7948 10.3333 12 10.5385 12 10.7917V13.5417C12 13.7948 11.7948 14 11.5417 14H5.125C4.87187 14 4.66667 13.7948 4.66667 13.5417V10.7917Z" fill="#E15E12"/>
<path d="M6.5 3H11.5417C11.7948 3 12 3.2052 12 3.45833V6.20833C12 6.46146 11.7948 6.66667 11.5417 6.66667H6.5V3Z" fill="#E15E12"/>
<path d="M4.66667 3.91667H5.58333V4.83333H4.66667V3.91667Z" fill="#E15E12"/>
<path d="M4.66667 5.75H5.58333V6.66667H4.66667V5.75Z" fill="#E15E12"/>
<path d="M5.58333 3H6.5V3.91667H5.58333V3Z" fill="#E15E12"/>
<path d="M5.58333 4.83333H6.5V5.75H5.58333V4.83333Z" fill="#E15E12"/>
<path d="M4.66667 18.125C4.66667 17.8719 4.87187 17.6667 5.125 17.6667H11.5417C11.7948 17.6667 12 17.8719 12 18.125V20.875C12 21.1281 11.7948 21.3333 11.5417 21.3333H5.125C4.87187 21.3333 4.66667 21.1281 4.66667 20.875V18.125Z" fill="#E15E12"/>
<path d="M21.1667 17.6667H16.125C15.8719 17.6667 15.6667 17.8719 15.6667 18.125V20.875C15.6667 21.1281 15.8719 21.3333 16.125 21.3333H21.1667V17.6667Z" fill="#E15E12"/>
<path d="M23 18.5833H22.0833V19.5H23V18.5833Z" fill="#E15E12"/>
<path d="M23 20.4167H22.0833V21.3333H23V20.4167Z" fill="#E15E12"/>
<path d="M22.0833 17.6667H21.1667V18.5833H22.0833V17.6667Z" fill="#E15E12"/>
<path d="M22.0833 19.5H21.1667V20.4167H22.0833V19.5Z" fill="#E15E12"/>
<path d="M14.7805 14.7818C14.3797 14.3811 14.0496 13.6325 13.9079 13.2785C13.8807 13.2103 13.7797 13.2079 13.7493 13.2748C13.5889 13.6273 13.2188 14.3797 12.8167 14.7818C12.4039 15.1946 11.6015 15.5941 11.2524 15.7569C11.1887 15.7866 11.1887 15.8801 11.2524 15.9098C11.6015 16.0725 12.4039 16.4721 12.8167 16.8849C13.2128 17.2809 13.5777 18.0168 13.7419 18.3757C13.7734 18.4444 13.879 18.4391 13.9039 18.3677C14.0299 18.0059 14.3177 17.278 14.7108 16.8849C15.124 16.4716 16.0101 16.0717 16.3966 15.9093C16.4635 15.8812 16.4644 15.7832 16.3981 15.7539C16.0265 15.5893 15.1907 15.1921 14.7805 14.7818Z" fill="#E15E12"/>
</svg>
