<svg width="180" height="180" viewBox="0 0 180 180" fill="none" xmlns="http://www.w3.org/2000/svg">
<path d="M104.417 53.8333C110.998 53.8333 116.333 59.1686 116.333 65.75C116.333 72.3314 110.998 77.6667 104.417 77.6667C97.8353 77.6667 92.5 72.3314 92.5 65.75C92.5 59.1686 97.8353 53.8333 104.417 53.8333Z" fill="#E15E12"/>
<path d="M32.9167 101.5C39.4981 101.5 44.8333 106.835 44.8333 113.417C44.8333 119.998 39.4981 125.333 32.9167 125.333C26.3353 125.333 21 119.998 21 113.417C21 106.835 26.3353 101.5 32.9167 101.5Z" fill="#E15E12"/>
<path d="M44.8333 80.6458C44.8333 79.0005 46.1672 77.6667 47.8125 77.6667H89.5208C91.1662 77.6667 92.5 79.0005 92.5 80.6458V98.5208C92.5 100.166 91.1662 101.5 89.5208 101.5H47.8125C46.1672 101.5 44.8333 100.166 44.8333 98.5208V80.6458Z" fill="#E15E12"/>
<path d="M56.75 30H89.5208C91.1662 30 92.5 31.3338 92.5 32.9792V50.8542C92.5 52.4995 91.1662 53.8333 89.5208 53.8333H56.75V30Z" fill="#E15E12"/>
<path d="M44.8333 35.9583H50.7917V41.9167H44.8333V35.9583Z" fill="#E15E12"/>
<path d="M44.8333 47.875H50.7917V53.8333H44.8333V47.875Z" fill="#E15E12"/>
<path d="M50.7917 30H56.75V35.9583H50.7917V30Z" fill="#E15E12"/>
<path d="M50.7917 41.9167H56.75V47.875H50.7917V41.9167Z" fill="#E15E12"/>
<path d="M44.8333 128.312C44.8333 126.667 46.1672 125.333 47.8125 125.333H89.5208C91.1662 125.333 92.5 126.667 92.5 128.312V146.187C92.5 147.833 91.1662 149.167 89.5208 149.167H47.8125C46.1672 149.167 44.8333 147.833 44.8333 146.187V128.312Z" fill="#E15E12"/>
<path d="M152.083 125.333H119.313C117.667 125.333 116.333 126.667 116.333 128.312V146.187C116.333 147.833 117.667 149.167 119.313 149.167H152.083V125.333Z" fill="#E15E12"/>
<path d="M164 131.292H158.042V137.25H164V131.292Z" fill="#E15E12"/>
<path d="M164 143.208H158.042V149.167H164V143.208Z" fill="#E15E12"/>
<path d="M158.042 125.333H152.083V131.292H158.042V125.333Z" fill="#E15E12"/>
<path d="M158.042 137.25H152.083V143.208H158.042V137.25Z" fill="#E15E12"/>
<path d="M110.573 106.582C108.158 104.167 106.138 99.8098 105.122 97.3532C104.861 96.7218 103.915 96.6975 103.625 97.3166C102.481 99.7662 100.235 104.155 97.808 106.582C95.2984 109.091 90.573 111.526 88.1157 112.695C87.5253 112.977 87.5253 113.857 88.1157 114.138C90.573 115.308 95.2984 117.742 97.808 120.251C100.184 122.628 102.388 126.886 103.553 129.362C103.852 129.998 104.848 129.949 105.089 129.289C105.994 126.803 107.767 122.604 110.12 120.251C112.633 117.739 117.835 115.302 120.553 114.134C121.173 113.867 121.183 112.946 120.568 112.667C117.963 111.487 113.062 109.071 110.573 106.582Z" fill="#E15E12"/>
</svg>
