<svg width="117" height="26" viewBox="0 0 117 26" fill="none" xmlns="http://www.w3.org/2000/svg">
<path d="M115.548 16.6995C115.656 16.8199 115.664 17.0001 115.562 17.125C114.345 18.6096 112.457 19.5615 110.155 19.5615C105.971 19.5615 103.397 16.9065 103.397 12.5619C103.397 8.51225 105.971 5.58902 109.86 5.58902C113.856 5.58902 116.055 8.51225 116.055 12.1059C116.055 12.49 116.04 12.8436 116.009 13.1552C115.993 13.323 115.849 13.4469 115.681 13.4469H106.035C105.84 13.4469 105.685 13.6121 105.707 13.8057C105.997 16.2905 107.724 17.416 110.208 17.416C111.969 17.416 113.274 16.6352 114.104 15.6978C114.246 15.5378 114.498 15.5264 114.641 15.6857L115.548 16.6995ZM109.779 7.70769C107.711 7.70769 106.055 8.80225 105.717 11.1767C105.689 11.3726 105.846 11.5428 106.044 11.5428H113.412C113.608 11.5428 113.764 11.3749 113.739 11.1799C113.43 8.80325 111.824 7.70769 109.779 7.70769Z" fill="#202020"/>
<path d="M90.2949 20.8154V24.8012C90.2949 24.9941 90.1385 25.1505 89.9456 25.1505H88.2525C88.0595 25.1505 87.9031 24.9941 87.9031 24.8012V8.29055C87.9031 8.09763 87.7467 7.94124 87.5538 7.94124H86.6295C86.4366 7.94124 86.2802 7.78485 86.2802 7.59193V6.20593C86.2802 6.01301 86.4366 5.85662 86.6295 5.85662H89.8127C90.0056 5.85662 90.162 6.01301 90.162 6.20593V8.39268C90.162 8.46996 90.2247 8.53261 90.3019 8.53261C90.3614 8.53261 90.4142 8.49477 90.4351 8.4391C91.096 6.67451 92.7274 5.58902 95.0518 5.58902C98.5065 5.58902 100.951 8.10445 100.951 12.5466C100.951 17.3099 98.2673 19.5309 95.0252 19.5309C92.7177 19.5309 91.1605 18.4888 90.4303 16.8673C90.4123 16.8275 90.3729 16.8014 90.3293 16.8014C90.267 16.8014 90.2173 16.8533 90.2199 16.9155C90.2699 18.1445 90.2949 19.5177 90.2949 20.8154ZM90.2949 12.7874C90.2949 15.6775 91.8628 17.4169 94.4405 17.4169C97.2043 17.4169 98.5596 15.3296 98.5596 12.5466C98.5596 9.79033 97.2043 7.70306 94.4405 7.70306C91.8628 7.70306 90.2949 9.44245 90.2949 12.3058V12.7874Z" fill="#202020"/>
<path d="M83.4392 19.2122V11.5499C83.4392 7.61244 81.4978 5.58902 78.6268 5.58902C76.47 5.58902 75.031 6.57249 73.9951 8.35599C73.9677 8.40309 73.9174 8.43274 73.8629 8.43274C73.8006 8.43274 73.7447 8.39411 73.721 8.33652C72.9697 6.51351 71.4846 5.58902 69.6034 5.58902C67.5574 5.58902 66.0415 6.62273 65.2645 8.27261C65.2422 8.31987 65.1949 8.35071 65.1426 8.35071C65.0692 8.35071 65.0097 8.2912 65.0097 8.21778V6.21177C65.0097 6.01885 64.8533 5.86245 64.6604 5.86245H61.479C61.2861 5.86245 61.1297 6.01885 61.1297 6.21177V7.68639C61.1297 7.87931 61.2861 8.0357 61.479 8.0357H62.3089C62.5018 8.0357 62.6582 8.19209 62.6582 8.38501V19.2122C62.6582 19.4051 62.8146 19.5615 63.0075 19.5615H64.7698C64.9627 19.5615 65.1191 19.4051 65.1191 19.2122V11.9327C65.1191 9.38976 66.4316 7.74915 68.6464 7.74915C70.7518 7.74915 71.8182 9.11633 71.8182 11.4679V19.2122C71.8182 19.4051 71.9746 19.5615 72.1675 19.5615H73.9298C74.1228 19.5615 74.2791 19.4051 74.2791 19.2122V11.9327C74.2791 9.38976 75.5643 7.74915 77.8064 7.74915C79.9119 7.74915 80.9783 9.11633 80.9783 11.4679V19.2122C80.9783 19.4051 81.1347 19.5615 81.3276 19.5615H83.0899C83.2828 19.5615 83.4392 19.4051 83.4392 19.2122Z" fill="#202020"/>
<path d="M51.1286 19.7793C50.2012 19.7793 49.3555 19.6247 48.5917 19.3155C47.8279 19.0064 47.2186 18.5426 46.764 17.9243C46.3275 17.2878 46.1093 16.5148 46.1093 15.6055C46.1093 14.5507 46.3821 13.7142 46.9276 13.0958C47.4732 12.4593 48.1916 12.0047 49.0827 11.7319C49.992 11.4409 50.965 11.2954 52.0016 11.2954H55.657C55.657 10.3497 55.4933 9.6041 55.166 9.05852C54.8568 8.51293 54.4476 8.12193 53.9384 7.88551C53.4292 7.64909 52.8654 7.53088 52.2471 7.53088C50.4913 7.45976 48.3554 8.27567 47.4051 8.68419C47.1736 8.78371 46.9079 8.61484 46.9079 8.36285V7.01962C46.9079 6.88586 46.986 6.7648 47.1095 6.71342C47.8046 6.42421 50.1724 5.51344 52.2471 5.59405C53.6111 5.59405 54.7113 5.84866 55.5479 6.35787C56.3845 6.8489 56.9937 7.51269 57.3756 8.34926C57.7575 9.18582 57.9485 10.1133 57.9485 11.1317V15.2782C57.9485 15.9511 57.9485 17.1748 57.9485 17.1748H59.3919C59.58 17.1748 59.7325 17.3273 59.7325 17.5154V19.0611C59.7325 19.2492 59.5807 19.4016 59.3926 19.4016C58.3789 19.4016 56.86 19.4016 56.1883 19.4016C56.0002 19.4016 55.848 19.2492 55.848 19.0611V17.3644C55.848 17.2769 55.7293 17.2432 55.6804 17.3158C55.2434 17.9653 54.6718 18.5228 53.9657 18.9882C53.1837 19.5156 52.238 19.7793 51.1286 19.7793ZM51.4833 17.8424C52.3926 17.8424 53.1564 17.6151 53.7747 17.1605C54.3931 16.6876 54.8568 16.0875 55.166 15.36C55.4933 14.6326 55.657 13.8779 55.657 13.0958V13.0686H52.1925C51.556 13.0686 50.9559 13.1413 50.3921 13.2868C49.8283 13.4141 49.3737 13.6596 49.0281 14.0233C48.6826 14.3689 48.5098 14.8599 48.5098 15.4964C48.5098 16.3148 48.8008 16.9149 49.3828 17.2969C49.9647 17.6606 50.6649 17.8424 51.4833 17.8424Z" fill="#202020"/>
<path d="M35.7589 19.7793C34.8314 19.7793 33.9857 19.6247 33.2219 19.3155C32.4581 19.0064 31.8489 18.5426 31.3942 17.9243C30.9577 17.2878 30.7395 16.5148 30.7395 15.6055C30.7395 14.5507 31.0123 13.7142 31.5579 13.0958C32.1035 12.4593 32.8218 12.0047 33.7129 11.7319C34.6222 11.4409 35.5952 11.2954 36.6318 11.2954H40.2872C40.2872 10.3497 40.1236 9.6041 39.7962 9.05852C39.4871 8.51293 39.0779 8.12193 38.5686 7.88551C38.0594 7.64909 37.4957 7.53088 36.8773 7.53088C35.1215 7.45976 32.9856 8.27567 32.0353 8.68419C31.8038 8.78371 31.5381 8.61484 31.5381 8.36285V7.01962C31.5381 6.88586 31.6163 6.7648 31.7398 6.71342C32.4349 6.42421 34.8027 5.51344 36.8773 5.59405C38.2413 5.59405 39.3416 5.84866 40.1781 6.35787C41.0147 6.8489 41.6239 7.51269 42.0058 8.34926C42.3877 9.18582 42.5787 10.1133 42.5787 11.1317V15.2782C42.5787 15.9511 42.5787 17.1748 42.5787 17.1748H44.0221C44.2102 17.1748 44.3627 17.3273 44.3627 17.5154V19.0611C44.3627 19.2492 44.2109 19.4016 44.0228 19.4016C43.0092 19.4016 41.4903 19.4016 40.8185 19.4016C40.6304 19.4016 40.4782 19.2492 40.4782 19.0611V17.3644C40.4782 17.2769 40.3595 17.2432 40.3107 17.3158C39.8736 17.9653 39.302 18.5228 38.5959 18.9882C37.8139 19.5156 36.8682 19.7793 35.7589 19.7793ZM36.1135 17.8424C37.0228 17.8424 37.7866 17.6151 38.405 17.1605C39.0233 16.6876 39.4871 16.0875 39.7962 15.36C40.1236 14.6326 40.2872 13.8779 40.2872 13.0958V13.0686H36.8228C36.1863 13.0686 35.5861 13.1413 35.0223 13.2868C34.4586 13.4141 34.0039 13.6596 33.6584 14.0233C33.3128 14.3689 33.1401 14.8599 33.1401 15.4964C33.1401 16.3148 33.4311 16.9149 34.013 17.2969C34.595 17.6606 35.2951 17.8424 36.1135 17.8424Z" fill="#202020"/>
<path d="M9.78076 8.38352C10.5524 8.38352 11.178 9.00909 11.178 9.78077C11.178 10.5525 10.5524 11.178 9.78076 11.178C9.00908 11.178 8.38351 10.5525 8.38351 9.78077C8.38351 9.00909 9.00908 8.38352 9.78076 8.38352Z" fill="#E15E12"/>
<path d="M1.39725 13.9725C2.16893 13.9725 2.7945 14.5981 2.7945 15.3698C2.7945 16.1415 2.16893 16.767 1.39725 16.767C0.625571 16.767 -1.68656e-08 16.1415 0 15.3698C1.68656e-08 14.5981 0.625571 13.9725 1.39725 13.9725Z" fill="#E15E12"/>
<path d="M2.7945 11.5273C2.7945 11.3344 2.95089 11.178 3.14382 11.178H8.03419C8.22711 11.178 8.38351 11.3344 8.38351 11.5273V13.6232C8.38351 13.8161 8.22711 13.9725 8.03419 13.9725H3.14382C2.95089 13.9725 2.7945 13.8161 2.7945 13.6232V11.5273Z" fill="#E15E12"/>
<path d="M4.19175 5.58902H8.03419C8.22711 5.58902 8.38351 5.74541 8.38351 5.93833V8.03421C8.38351 8.22713 8.22711 8.38352 8.03419 8.38352H4.19175V5.58902Z" fill="#E15E12"/>
<path d="M2.7945 6.28765H3.49313V6.98627H2.7945V6.28765Z" fill="#E15E12"/>
<path d="M2.7945 7.6849H3.49313V8.38352H2.7945V7.6849Z" fill="#E15E12"/>
<path d="M3.49313 5.58902H4.19175V6.28765H3.49313V5.58902Z" fill="#E15E12"/>
<path d="M3.49313 6.98627H4.19175V7.6849H3.49313V6.98627Z" fill="#E15E12"/>
<path d="M2.7945 17.1163C2.7945 16.9234 2.95089 16.767 3.14382 16.767H8.03419C8.22711 16.767 8.38351 16.9234 8.38351 17.1163V19.2122C8.38351 19.4051 8.22711 19.5615 8.03419 19.5615H3.14382C2.95089 19.5615 2.7945 19.4051 2.7945 19.2122V17.1163Z" fill="#E15E12"/>
<path d="M15.3698 16.767H11.5273C11.3344 16.767 11.178 16.9234 11.178 17.1163V19.2122C11.178 19.4051 11.3344 19.5615 11.5273 19.5615H15.3698V16.767Z" fill="#E15E12"/>
<path d="M16.767 17.4657H16.0684V18.1643H16.767V17.4657Z" fill="#E15E12"/>
<path d="M16.767 18.8629H16.0684V19.5615H16.767V18.8629Z" fill="#E15E12"/>
<path d="M16.0684 16.767H15.3698V17.4657H16.0684V16.767Z" fill="#E15E12"/>
<path d="M16.0684 18.1643H15.3698V18.8629H16.0684V18.1643Z" fill="#E15E12"/>
<path d="M10.5026 14.5684C10.2194 14.2853 9.9826 13.7743 9.8635 13.4863C9.83289 13.4123 9.7219 13.4094 9.688 13.482C9.55386 13.7692 9.29042 14.2839 9.00589 14.5684C8.71163 14.8626 8.15757 15.1481 7.86945 15.2852C7.80022 15.3182 7.80022 15.4214 7.86945 15.4543C8.15757 15.5915 8.71163 15.8769 9.00589 16.1712C9.28453 16.4498 9.54295 16.9491 9.67951 17.2394C9.7146 17.314 9.83139 17.3083 9.85961 17.2308C9.96575 16.9393 10.1736 16.4471 10.4495 16.1712C10.7441 15.8766 11.3541 15.5908 11.6727 15.4539C11.7454 15.4226 11.7466 15.3146 11.6745 15.2819C11.3691 15.1435 10.7945 14.8603 10.5026 14.5684Z" fill="#E15E12"/>
</svg>
