<svg width="117" height="50" viewBox="0 0 117 50" fill="none" xmlns="http://www.w3.org/2000/svg">
<path d="M115.548 28.6995C115.656 28.8199 115.664 29.0001 115.562 29.125C114.345 30.6096 112.457 31.5615 110.155 31.5615C105.971 31.5615 103.397 28.9065 103.397 24.5619C103.397 20.5123 105.971 17.589 109.86 17.589C113.856 17.589 116.055 20.5123 116.055 24.1059C116.055 24.49 116.04 24.8436 116.009 25.1552C115.993 25.323 115.849 25.4469 115.681 25.4469H106.035C105.84 25.4469 105.685 25.6121 105.707 25.8057C105.997 28.2905 107.724 29.416 110.208 29.416C111.969 29.416 113.274 28.6352 114.104 27.6978C114.246 27.5378 114.498 27.5264 114.641 27.6857L115.548 28.6995ZM109.779 19.7077C107.711 19.7077 106.055 20.8023 105.717 23.1767C105.689 23.3726 105.846 23.5428 106.044 23.5428H113.412C113.608 23.5428 113.764 23.3749 113.739 23.1799C113.43 20.8033 111.824 19.7077 109.779 19.7077Z" fill="#202020"/>
<path d="M90.2949 32.8154V36.8012C90.2949 36.9941 90.1385 37.1505 89.9456 37.1505H88.2525C88.0595 37.1505 87.9031 36.9941 87.9031 36.8012V20.2906C87.9031 20.0976 87.7467 19.9412 87.5538 19.9412H86.6295C86.4366 19.9412 86.2802 19.7848 86.2802 19.5919V18.2059C86.2802 18.013 86.4366 17.8566 86.6295 17.8566H89.8127C90.0056 17.8566 90.162 18.013 90.162 18.2059V20.3927C90.162 20.47 90.2247 20.5326 90.3019 20.5326C90.3614 20.5326 90.4142 20.4948 90.4351 20.4391C91.096 18.6745 92.7274 17.589 95.0518 17.589C98.5065 17.589 100.951 20.1045 100.951 24.5466C100.951 29.3099 98.2673 31.5309 95.0252 31.5309C92.7177 31.5309 91.1605 30.4888 90.4303 28.8673C90.4123 28.8275 90.3729 28.8014 90.3293 28.8014C90.267 28.8014 90.2173 28.8533 90.2199 28.9155C90.2699 30.1445 90.2949 31.5177 90.2949 32.8154ZM90.2949 24.7874C90.2949 27.6775 91.8628 29.4169 94.4405 29.4169C97.2043 29.4169 98.5596 27.3296 98.5596 24.5466C98.5596 21.7903 97.2043 19.7031 94.4405 19.7031C91.8628 19.7031 90.2949 21.4425 90.2949 24.3058V24.7874Z" fill="#202020"/>
<path d="M83.4392 31.2122V23.5499C83.4392 19.6124 81.4978 17.589 78.6268 17.589C76.47 17.589 75.031 18.5725 73.9951 20.356C73.9677 20.4031 73.9174 20.4327 73.8629 20.4327C73.8006 20.4327 73.7447 20.3941 73.721 20.3365C72.9697 18.5135 71.4846 17.589 69.6034 17.589C67.5574 17.589 66.0415 18.6227 65.2645 20.2726C65.2422 20.3199 65.1949 20.3507 65.1426 20.3507C65.0692 20.3507 65.0097 20.2912 65.0097 20.2178V18.2118C65.0097 18.0188 64.8533 17.8625 64.6604 17.8625H61.479C61.2861 17.8625 61.1297 18.0188 61.1297 18.2118V19.6864C61.1297 19.8793 61.2861 20.0357 61.479 20.0357H62.3089C62.5018 20.0357 62.6582 20.1921 62.6582 20.385V31.2122C62.6582 31.4051 62.8146 31.5615 63.0075 31.5615H64.7698C64.9627 31.5615 65.1191 31.4051 65.1191 31.2122V23.9327C65.1191 21.3898 66.4316 19.7492 68.6464 19.7492C70.7518 19.7492 71.8182 21.1163 71.8182 23.4679V31.2122C71.8182 31.4051 71.9746 31.5615 72.1675 31.5615H73.9298C74.1228 31.5615 74.2791 31.4051 74.2791 31.2122V23.9327C74.2791 21.3898 75.5643 19.7492 77.8064 19.7492C79.9119 19.7492 80.9783 21.1163 80.9783 23.4679V31.2122C80.9783 31.4051 81.1347 31.5615 81.3276 31.5615H83.0899C83.2828 31.5615 83.4392 31.4051 83.4392 31.2122Z" fill="#202020"/>
<path d="M51.1286 31.7793C50.2012 31.7793 49.3555 31.6247 48.5917 31.3155C47.8279 31.0064 47.2186 30.5426 46.764 29.9243C46.3275 29.2878 46.1093 28.5148 46.1093 27.6055C46.1093 26.5507 46.3821 25.7142 46.9276 25.0958C47.4732 24.4593 48.1916 24.0047 49.0827 23.7319C49.992 23.4409 50.965 23.2954 52.0016 23.2954H55.657C55.657 22.3497 55.4933 21.6041 55.166 21.0585C54.8568 20.5129 54.4476 20.1219 53.9384 19.8855C53.4292 19.6491 52.8654 19.5309 52.2471 19.5309C50.4913 19.4598 48.3554 20.2757 47.4051 20.6842C47.1736 20.7837 46.9079 20.6148 46.9079 20.3629V19.0196C46.9079 18.8859 46.986 18.7648 47.1095 18.7134C47.8046 18.4242 50.1724 17.5134 52.2471 17.5941C53.6111 17.5941 54.7113 17.8487 55.5479 18.3579C56.3845 18.8489 56.9937 19.5127 57.3756 20.3493C57.7575 21.1858 57.9485 22.1133 57.9485 23.1317V27.2782C57.9485 27.9511 57.9485 29.1748 57.9485 29.1748H59.3919C59.58 29.1748 59.7325 29.3273 59.7325 29.5154V31.0611C59.7325 31.2492 59.5807 31.4016 59.3926 31.4016C58.3789 31.4016 56.86 31.4016 56.1883 31.4016C56.0002 31.4016 55.848 31.2492 55.848 31.0611V29.3644C55.848 29.2769 55.7293 29.2432 55.6804 29.3158C55.2434 29.9653 54.6718 30.5228 53.9657 30.9882C53.1837 31.5156 52.238 31.7793 51.1286 31.7793ZM51.4833 29.8424C52.3926 29.8424 53.1564 29.6151 53.7747 29.1605C54.3931 28.6876 54.8568 28.0875 55.166 27.36C55.4933 26.6326 55.657 25.8779 55.657 25.0958V25.0686H52.1925C51.556 25.0686 50.9559 25.1413 50.3921 25.2868C49.8283 25.4141 49.3737 25.6596 49.0281 26.0233C48.6826 26.3689 48.5098 26.8599 48.5098 27.4964C48.5098 28.3148 48.8008 28.9149 49.3828 29.2969C49.9647 29.6606 50.6649 29.8424 51.4833 29.8424Z" fill="#202020"/>
<path d="M35.7589 31.7793C34.8314 31.7793 33.9857 31.6247 33.2219 31.3155C32.4581 31.0064 31.8489 30.5426 31.3942 29.9243C30.9577 29.2878 30.7395 28.5148 30.7395 27.6055C30.7395 26.5507 31.0123 25.7142 31.5579 25.0958C32.1035 24.4593 32.8218 24.0047 33.7129 23.7319C34.6222 23.4409 35.5952 23.2954 36.6318 23.2954H40.2872C40.2872 22.3497 40.1236 21.6041 39.7962 21.0585C39.4871 20.5129 39.0779 20.1219 38.5686 19.8855C38.0594 19.6491 37.4957 19.5309 36.8773 19.5309C35.1215 19.4598 32.9856 20.2757 32.0353 20.6842C31.8038 20.7837 31.5381 20.6148 31.5381 20.3629V19.0196C31.5381 18.8859 31.6163 18.7648 31.7398 18.7134C32.4349 18.4242 34.8027 17.5134 36.8773 17.5941C38.2413 17.5941 39.3416 17.8487 40.1781 18.3579C41.0147 18.8489 41.6239 19.5127 42.0058 20.3493C42.3877 21.1858 42.5787 22.1133 42.5787 23.1317V27.2782C42.5787 27.9511 42.5787 29.1748 42.5787 29.1748H44.0221C44.2102 29.1748 44.3627 29.3273 44.3627 29.5154V31.0611C44.3627 31.2492 44.2109 31.4016 44.0228 31.4016C43.0092 31.4016 41.4903 31.4016 40.8185 31.4016C40.6304 31.4016 40.4782 31.2492 40.4782 31.0611V29.3644C40.4782 29.2769 40.3595 29.2432 40.3107 29.3158C39.8736 29.9653 39.302 30.5228 38.5959 30.9882C37.8139 31.5156 36.8682 31.7793 35.7589 31.7793ZM36.1135 29.8424C37.0228 29.8424 37.7866 29.6151 38.405 29.1605C39.0233 28.6876 39.4871 28.0875 39.7962 27.36C40.1236 26.6326 40.2872 25.8779 40.2872 25.0958V25.0686H36.8228C36.1863 25.0686 35.5861 25.1413 35.0223 25.2868C34.4586 25.4141 34.0039 25.6596 33.6584 26.0233C33.3128 26.3689 33.1401 26.8599 33.1401 27.4964C33.1401 28.3148 33.4311 28.9149 34.013 29.2969C34.595 29.6606 35.2951 29.8424 36.1135 29.8424Z" fill="#202020"/>
<path d="M9.78076 20.3835C10.5524 20.3835 11.178 21.0091 11.178 21.7808C11.178 22.5525 10.5524 23.178 9.78076 23.178C9.00908 23.178 8.38351 22.5525 8.38351 21.7808C8.38351 21.0091 9.00908 20.3835 9.78076 20.3835Z" fill="#E15E12"/>
<path d="M1.39725 25.9725C2.16893 25.9725 2.7945 26.5981 2.7945 27.3698C2.7945 28.1415 2.16893 28.767 1.39725 28.767C0.625571 28.767 -1.68656e-08 28.1415 0 27.3698C1.68656e-08 26.5981 0.625571 25.9725 1.39725 25.9725Z" fill="#E15E12"/>
<path d="M2.7945 23.5273C2.7945 23.3344 2.95089 23.178 3.14382 23.178H8.03419C8.22711 23.178 8.38351 23.3344 8.38351 23.5273V25.6232C8.38351 25.8161 8.22711 25.9725 8.03419 25.9725H3.14382C2.95089 25.9725 2.7945 25.8161 2.7945 25.6232V23.5273Z" fill="#E15E12"/>
<path d="M4.19175 17.589H8.03419C8.22711 17.589 8.38351 17.7454 8.38351 17.9383V20.0342C8.38351 20.2271 8.22711 20.3835 8.03419 20.3835H4.19175V17.589Z" fill="#E15E12"/>
<path d="M2.7945 18.2876H3.49313V18.9863H2.7945V18.2876Z" fill="#E15E12"/>
<path d="M2.7945 19.6849H3.49313V20.3835H2.7945V19.6849Z" fill="#E15E12"/>
<path d="M3.49313 17.589H4.19175V18.2876H3.49313V17.589Z" fill="#E15E12"/>
<path d="M3.49313 18.9863H4.19175V19.6849H3.49313V18.9863Z" fill="#E15E12"/>
<path d="M2.7945 29.1163C2.7945 28.9234 2.95089 28.767 3.14382 28.767H8.03419C8.22711 28.767 8.38351 28.9234 8.38351 29.1163V31.2122C8.38351 31.4051 8.22711 31.5615 8.03419 31.5615H3.14382C2.95089 31.5615 2.7945 31.4051 2.7945 31.2122V29.1163Z" fill="#E15E12"/>
<path d="M15.3698 28.767H11.5273C11.3344 28.767 11.178 28.9234 11.178 29.1163V31.2122C11.178 31.4051 11.3344 31.5615 11.5273 31.5615H15.3698V28.767Z" fill="#E15E12"/>
<path d="M16.767 29.4657H16.0684V30.1643H16.767V29.4657Z" fill="#E15E12"/>
<path d="M16.767 30.8629H16.0684V31.5615H16.767V30.8629Z" fill="#E15E12"/>
<path d="M16.0684 28.767H15.3698V29.4657H16.0684V28.767Z" fill="#E15E12"/>
<path d="M16.0684 30.1643H15.3698V30.8629H16.0684V30.1643Z" fill="#E15E12"/>
<path d="M10.5026 26.5684C10.2194 26.2853 9.9826 25.7743 9.8635 25.4863C9.83289 25.4123 9.7219 25.4094 9.688 25.482C9.55386 25.7692 9.29042 26.2839 9.00589 26.5684C8.71163 26.8626 8.15757 27.1481 7.86945 27.2852C7.80022 27.3182 7.80022 27.4214 7.86945 27.4543C8.15757 27.5915 8.71163 27.8769 9.00589 28.1712C9.28453 28.4498 9.54295 28.9491 9.67951 29.2394C9.7146 29.314 9.83139 29.3083 9.85961 29.2308C9.96575 28.9393 10.1736 28.4471 10.4495 28.1712C10.7441 27.8766 11.3541 27.5908 11.6727 27.4539C11.7454 27.4226 11.7466 27.3146 11.6745 27.2819C11.3691 27.1435 10.7945 26.8603 10.5026 26.5684Z" fill="#E15E12"/>
</svg>
